<svg width="784" height="784" viewBox="0 0 784 784" fill="none" xmlns="http://www.w3.org/2000/svg">
<g clip-path="url(#clip0_246_166)">
<rect width="784" height="784" rx="178" fill="url(#paint0_linear_246_166)"/>
<path d="M392.191 143.23C398.572 143.23 403.775 148.347 403.88 154.728L405.547 255.896C416.118 260.955 423.419 271.751 423.419 284.252C423.419 293.209 419.67 301.291 413.657 307.014L463.607 464H437.535L418.703 404.816H363.836L345.004 464H320.393L370.343 307.014C364.33 301.291 360.581 293.209 360.58 284.252C360.58 271.751 367.881 260.955 378.452 255.896L380.12 154.728C380.225 148.347 385.427 143.23 391.809 143.23H392.191ZM373.733 379.972H410.267L392 322.979L373.733 379.972Z" fill="white"/>
<path opacity="0.9" d="M235.633 187.071C204.097 214.767 183.024 252.994 183.024 295.212C183.024 337.43 204.097 375.657 235.633 403.353" stroke="white" stroke-width="35.0729" stroke-linecap="round"/>
<path opacity="0.8" d="M168.41 133C122.858 174.545 90.9578 231.885 90.9578 295.212C90.9578 358.539 122.858 415.88 168.41 457.424" stroke="white" stroke-width="29.2274" stroke-linecap="round"/>
<path opacity="0.8" d="M615.59 133C661.142 174.545 693.042 231.885 693.042 295.212C693.042 358.539 661.142 415.88 615.59 457.424" stroke="white" stroke-width="29.2274" stroke-linecap="round"/>
<path opacity="0.9" d="M548.367 187.071C579.903 214.767 600.976 252.994 600.976 295.212C600.976 337.43 579.903 375.657 548.367 403.353" stroke="white" stroke-width="35.0729" stroke-linecap="round"/>
<mask id="mask0_246_166" style="mask-type:alpha" maskUnits="userSpaceOnUse" x="114" y="423" width="556" height="565">
<rect x="114.456" y="423" width="555.088" height="565" fill="url(#paint1_linear_246_166)"/>
</mask>
<g mask="url(#mask0_246_166)">
<circle cx="391.504" cy="706.987" r="260.197" fill="url(#paint2_linear_246_166)" fill-opacity="0.4"/>
<path d="M391.505 458.684C450.347 458.684 504.409 479.153 546.959 513.357C549.889 512.562 552.142 511.903 553.697 511.427C554.587 511.154 555.248 510.942 555.678 510.802C555.893 510.733 556.05 510.68 556.149 510.647C556.198 510.631 556.233 510.619 556.254 510.612C556.263 510.609 556.269 510.607 556.272 510.606C556.273 510.612 556.336 510.8 558.531 517.167C560.792 523.726 560.79 523.728 560.788 523.728C560.787 523.729 560.784 523.73 560.783 523.73C560.779 523.732 560.773 523.733 560.767 523.735C560.755 523.739 560.739 523.744 560.72 523.751C560.682 523.764 560.627 523.783 560.559 523.805C560.423 523.851 560.228 523.916 559.975 523.998C559.837 524.043 559.68 524.092 559.506 524.147C588.814 551.091 611.626 584.991 625.325 623.228H632.13V637.105H629.838C636.326 659.272 639.807 682.723 639.807 706.987C639.807 844.121 528.638 955.29 391.505 955.29C254.371 955.29 143.202 844.121 143.202 706.987C143.202 682.723 146.684 659.272 153.172 637.105H150.888V623.228H157.684C171.383 584.99 194.195 551.089 223.504 524.145C223.333 524.091 223.179 524.042 223.043 523.998C222.79 523.916 222.595 523.851 222.459 523.805C222.391 523.783 222.336 523.764 222.297 523.751C222.278 523.744 222.263 523.739 222.251 523.735C222.245 523.733 222.239 523.732 222.235 523.73C222.233 523.73 222.231 523.729 222.23 523.728C222.228 523.726 222.259 523.628 224.487 517.167C226.671 510.833 226.744 510.614 226.746 510.606C226.748 510.607 226.755 510.609 226.764 510.612C226.784 510.619 226.82 510.631 226.869 510.647C226.967 510.68 227.125 510.733 227.339 510.802C227.769 510.942 228.431 511.154 229.321 511.427C230.875 511.902 233.125 512.561 236.052 513.355C278.602 479.152 332.663 458.684 391.505 458.684ZM272.839 637.105C269.119 659.145 267.105 682.613 267.105 706.987C267.105 772.43 281.614 831.334 304.723 873.629C324.767 910.312 350.557 933.382 378.139 939.051C380.274 939.172 382.416 939.263 384.566 939.326V637.105H272.839ZM398.443 637.105V939.326C400.592 939.263 402.734 939.172 404.869 939.051C432.451 933.383 458.241 910.313 478.285 873.629C501.394 831.333 515.904 772.43 515.904 706.987C515.904 682.613 513.89 659.145 510.17 637.105H398.443ZM169.751 637.105C162.807 659.162 159.061 682.637 159.061 706.987C159.061 815.513 233.436 906.665 333.996 932.259C318.17 919.413 304.166 901.551 292.546 880.283C268.12 835.58 253.228 774.298 253.228 706.987C253.228 682.747 255.16 659.289 258.772 637.105H169.751ZM524.237 637.105C527.849 659.289 529.781 682.747 529.781 706.987C529.781 774.298 514.889 835.58 490.464 880.283C478.843 901.551 464.839 919.413 449.012 932.259C549.572 906.665 623.947 815.513 623.947 706.987C623.947 682.637 620.201 659.162 613.257 637.105H524.237ZM241.815 529.152C212.154 554.145 188.833 586.423 174.61 623.228H261.283C267.638 591.354 277.53 562.476 290.159 538.172C281.582 536.966 273.773 535.685 266.757 534.4C256.831 532.583 248.493 530.762 241.815 529.152ZM304.723 540.344C292.053 563.533 281.97 591.714 275.444 623.228H384.566V544.887C353.958 544.629 327.28 542.684 304.877 540.065C304.826 540.158 304.774 540.251 304.723 540.344ZM478.13 540.066C455.727 542.684 429.05 544.63 398.443 544.888V623.228H507.565C501.039 591.714 490.955 563.533 478.285 540.344C478.234 540.251 478.181 540.159 478.13 540.066ZM541.195 529.154C534.518 530.763 526.182 532.584 516.26 534.4C509.242 535.685 501.43 536.966 492.85 538.173C505.478 562.477 515.372 591.355 521.726 623.228H608.398C594.176 586.424 570.855 554.147 541.195 529.154ZM384.566 474.646C382.416 474.709 380.274 474.801 378.139 474.922C354.077 479.866 331.379 498.055 312.671 526.972C333.256 529.179 357.306 530.775 384.566 531.01V474.646ZM398.443 531.01C425.703 530.775 449.753 529.18 470.339 526.973C451.629 498.056 428.931 479.866 404.869 474.922C402.734 474.801 400.592 474.709 398.443 474.646V531.01ZM449.012 481.714C462.674 492.802 474.975 507.63 485.56 525.159C496.084 523.775 505.499 522.262 513.761 520.75C518.584 519.867 523.013 518.983 527.041 518.128C503.86 501.462 477.486 488.96 449.012 481.714ZM333.996 481.714C305.524 488.96 279.15 501.461 255.97 518.126C260 518.981 264.431 519.866 269.256 520.75C277.516 522.262 286.928 523.773 297.448 525.157C308.032 507.629 320.334 492.802 333.996 481.714Z" fill="#70B7FF" fill-opacity="0.46"/>
<circle cx="391.504" cy="706.987" r="250.285" stroke="url(#paint3_linear_246_166)" stroke-width="19.8246"/>
</g>
</g>
<defs>
<linearGradient id="paint0_linear_246_166" x1="392" y1="0" x2="392" y2="784" gradientUnits="userSpaceOnUse">
<stop stop-color="#2260B3"/>
<stop offset="1" stop-color="#1A458C"/>
</linearGradient>
<linearGradient id="paint1_linear_246_166" x1="392" y1="423" x2="392" y2="988" gradientUnits="userSpaceOnUse">
<stop offset="0.300141" stop-color="white"/>
<stop offset="0.459233" stop-color="white" stop-opacity="0"/>
</linearGradient>
<linearGradient id="paint2_linear_246_166" x1="391.504" y1="446.79" x2="391.504" y2="967.184" gradientUnits="userSpaceOnUse">
<stop stop-color="#47A6FF"/>
<stop offset="0.495192" stop-color="#50AAFF" stop-opacity="0.5"/>
</linearGradient>
<linearGradient id="paint3_linear_246_166" x1="391.504" y1="446.79" x2="391.504" y2="967.184" gradientUnits="userSpaceOnUse">
<stop stop-color="#E1EDFF"/>
<stop offset="1" stop-color="#418CFF"/>
</linearGradient>
<clipPath id="clip0_246_166">
<rect width="784" height="784" fill="white"/>
</clipPath>
</defs>
</svg>
